<svg width="1617" height="572" viewBox="0 0 1617 572" fill="none" xmlns="http://www.w3.org/2000/svg">
<path d="M274.809 0H275.166C284.867 6.44981 295.5 11.3458 306.137 16.0154C328.412 25.5849 351.562 32.9854 374.966 39.2347C420.099 51.1857 466.307 58.6536 512.694 63.6844C512.718 109.192 514.333 154.68 514.718 200.182C514.891 229.514 514.435 258.901 511.642 288.12C509.13 313.786 504.704 339.371 496.75 363.94C490.378 383.746 481.638 402.812 470.489 420.383C450.959 451.318 424.096 477.093 394.299 498.074C358.173 523.54 318.059 542.733 277.101 559.05C275.877 559.631 274.512 559.768 273.283 559.139C243.576 547.343 214.415 534.007 186.776 517.904C155.905 499.892 126.787 478.272 103.032 451.403C89.6899 436.333 78.1655 419.637 68.9889 401.72C59.4194 383.103 52.3921 363.245 47.4743 342.92C40.9055 315.832 37.8928 288.015 36.5037 260.215C34.1758 212.516 36.1187 164.752 36.8668 117.033C37.2816 99.2418 37.3015 81.4403 37.5317 63.6488C87.4889 58.2964 137.26 49.993 185.661 36.3611C208.287 29.8914 230.657 22.3064 252.042 12.4293C259.824 8.67452 267.754 5.03284 274.811 0.0019865L274.809 0Z" fill="#122966" style="fill:#122966;fill:color(display-p3 0.0706 0.1608 0.4000);fill-opacity:1;"/>
<path d="M253.169 35.5455C260.653 32.3683 267.907 28.679 275.166 25.0254C294.702 35.5098 315.492 43.4282 336.509 50.3841C386.756 66.7249 438.928 76.3956 491.302 82.7938C491.681 124.702 493.043 166.59 493.21 208.498C493.168 245.623 492.223 282.956 485.642 319.583C481.703 341.36 475.597 362.829 466.372 382.982C457.676 402.085 446.164 419.887 432.401 435.724C406.169 465.988 372.679 489.025 337.573 507.819C317.346 518.565 296.502 528.194 275.202 536.593C270.776 535.269 266.631 533.141 262.342 531.461C231.318 518.255 201.009 503.05 173.085 484.065C155.418 472.025 138.752 458.403 124.114 442.787C110.563 428.387 98.8444 412.236 89.5824 394.754C79.229 375.306 71.9932 354.295 67.1886 332.822C61.1893 306.045 58.7364 278.606 57.6548 251.235C55.9382 204.326 57.8334 157.393 58.4566 110.478C58.7245 101.242 58.5578 91.9923 58.9448 82.7621C97.9354 78.0627 136.743 71.4045 174.813 61.6623C201.472 54.7481 227.841 46.4427 253.169 35.5435V35.5455ZM248.418 50.4138C223.161 60.4815 197.102 68.4713 170.709 74.9588C137.742 83.1987 104.179 88.7813 70.5406 93.3974C70.1953 130.185 68.8358 166.955 68.812 203.747C68.7942 233.346 69.2168 263.017 72.531 292.456C75.3471 317.263 80.3185 341.967 89.2708 365.329C96.7506 384.962 107.158 403.476 120.16 419.978C132.647 435.898 147.408 449.933 163.368 462.324C193.087 485.359 226.606 502.978 260.989 517.954C265.736 519.861 270.328 522.248 275.204 523.75C279.054 522.439 282.723 520.633 286.496 519.113C313.589 507.451 340.083 494.181 364.787 478.006C382.227 466.56 398.776 453.64 413.424 438.754C426.457 425.555 437.886 410.734 447.063 394.607C458.003 375.504 465.65 354.631 470.681 333.233C478.325 300.746 480.429 267.274 481.106 234.003C482.009 187.094 480.191 140.191 479.526 93.2942C431.774 87.0329 384.245 77.9992 338.281 63.4345C316.707 56.562 295.399 48.6495 275.16 38.4509C266.357 42.68 257.506 46.8198 248.418 50.4138Z" fill="#F8B811" style="fill:#F8B811;fill:color(display-p3 0.9725 0.7216 0.0667);fill-opacity:1;"/>
<path d="M485.594 533.157C354.768 458.981 195.392 458.957 64.5502 533.118C53.6927 514.32 42.8272 495.528 31.9697 476.738C182.792 391.035 367.384 391.061 518.182 476.796C507.317 495.578 496.459 514.37 485.594 533.159V533.157Z" fill="#101830" style="fill:#101830;fill:color(display-p3 0.0627 0.0941 0.1882);fill-opacity:1;"/>
<path d="M271.032 141.904C272.33 140.165 273.799 138.53 275.597 137.292C281.275 141.85 284.345 148.762 286.448 155.556C287.347 158.886 288.443 162.246 288.403 165.728C288.36 222.435 288.433 279.142 288.363 335.845C284.811 334.257 281.441 332.292 277.968 330.548C277.188 330.328 276.996 329.556 277.059 328.843C277.055 276.443 277.059 224.039 277.059 171.634C277.02 169.9 277.192 168.152 276.942 166.433C276.343 164.812 273.646 165.52 273.979 167.239C273.966 220.282 273.966 273.329 273.979 326.372C273.88 327.611 274.229 328.982 273.71 330.135C270.076 332.1 266.464 334.191 262.642 335.775C262.642 282.698 262.642 229.625 262.642 176.548C262.715 172.196 262.495 167.834 262.745 163.492C264.08 155.877 266.484 148.239 271.032 141.902V141.904Z" fill="#F8B811" style="fill:#F8B811;fill:color(display-p3 0.9725 0.7216 0.0667);fill-opacity:1;"/>
<path d="M163.774 199.879C183.963 197.658 204.66 199.53 224.047 205.636C236.214 209.512 247.838 215.206 258.153 222.755C258.241 250.745 258.163 278.735 258.187 306.725C258.143 316.416 258.286 326.115 258.118 335.801C243.843 325.815 228.226 317.597 211.568 312.383C196.201 307.618 179.672 305.467 163.762 308.611C163.611 279.981 163.738 251.352 163.698 222.723C163.742 215.108 163.595 207.49 163.772 199.877L163.774 199.879Z" fill="#F8B811" style="fill:#F8B811;fill:color(display-p3 0.9725 0.7216 0.0667);fill-opacity:1;"/>
<path d="M344.166 201.23C357.704 198.896 371.576 198.293 385.242 199.775C386.052 199.706 386.671 200.242 386.455 201.087C386.429 236.887 386.488 272.688 386.425 308.489C369.586 305.463 352.187 307.781 336.075 313.185C320.341 318.446 305.56 326.325 291.996 335.835C291.926 298.158 291.972 260.481 291.976 222.802C307.279 211.494 325.493 204.495 344.164 201.228L344.166 201.23Z" fill="#F8B811" style="fill:#F8B811;fill:color(display-p3 0.9725 0.7216 0.0667);fill-opacity:1;"/>
<path d="M146.509 215.102C151.018 214.669 155.547 214.11 160.082 214.356C160.034 247.21 160.022 280.062 160.088 312.915C164.023 312.335 167.913 311.436 171.878 311.009C181.958 309.841 192.263 310.434 202.079 313.067C211.25 315.499 219.93 319.478 228.228 324.022C226.803 326.15 224.106 326.92 221.665 326.489C216.507 325.697 211.579 323.871 206.471 322.826C186.709 318.346 166.147 320.035 146.418 323.798C146.295 288.636 146.418 253.469 146.355 218.307C146.345 217.235 146.398 216.166 146.511 215.104L146.509 215.102Z" fill="#F8B811" style="fill:#F8B811;fill:color(display-p3 0.9725 0.7216 0.0667);fill-opacity:1;"/>
<path d="M390.156 214.251C394.684 214.265 399.219 214.57 403.718 215.14C403.845 251.362 403.768 287.596 403.758 323.824C387.345 320.645 370.443 318.98 353.781 321.058C346.835 321.899 340.036 323.622 333.306 325.489C330.718 326.132 328.015 326.934 325.338 326.384C323.903 326.099 322.818 325.077 321.875 324.041C330.736 319.212 340.02 314.973 349.869 312.62C359.959 310.159 370.516 309.855 380.783 311.334C383.926 311.713 386.996 312.576 390.15 312.901C390.116 280.017 390.11 247.135 390.154 214.253L390.156 214.251Z" fill="#F8B811" style="fill:#F8B811;fill:color(display-p3 0.9725 0.7216 0.0667);fill-opacity:1;"/>
<path d="M234.14 333.354C237.726 333.251 241.318 333.324 244.912 333.305C244.982 335.079 244.986 336.857 244.938 338.639C252.73 338.945 260.535 338.683 268.33 338.772C280.607 338.748 292.881 338.812 305.158 338.738C305.167 336.926 305.171 335.113 305.191 333.305C309.077 333.311 312.967 333.285 316.853 333.318C316.839 338.314 316.882 343.311 316.829 348.31C289.271 348.266 261.708 348.31 234.15 348.286C234.18 343.305 234.204 338.329 234.14 333.352V333.354Z" fill="#F8B811" style="fill:#F8B811;fill:color(display-p3 0.9725 0.7216 0.0667);fill-opacity:1;"/>
<path d="M265.049 351.118C266.105 350.781 267.236 350.864 268.332 350.842C273.74 350.898 279.154 350.802 284.562 350.882C286.689 350.794 288.664 352.694 288.487 354.845C288.537 356.947 286.596 358.737 284.522 358.637C278.475 358.651 272.428 358.667 266.385 358.628C264.174 358.691 262.293 356.574 262.549 354.398C262.662 352.95 263.684 351.612 265.049 351.116V351.118Z" fill="#F8B811" style="fill:#F8B811;fill:color(display-p3 0.9725 0.7216 0.0667);fill-opacity:1;"/>
<path d="M265.988 360.828C267.226 360.485 268.532 360.632 269.804 360.602C274.559 360.661 279.314 360.532 284.069 360.651C285.429 360.622 286.633 361.826 286.599 363.196C286.717 366.147 286.59 369.106 286.653 372.057C286.584 373.313 286.873 374.847 285.827 375.794C284.992 376.669 283.68 376.506 282.591 376.57C277.5 376.526 272.412 376.603 267.323 376.536C265.875 376.659 264.416 375.534 264.44 374.029C264.347 370.576 264.41 367.123 264.406 363.674C264.329 362.509 264.878 361.296 265.988 360.824V360.828Z" fill="#F8B811" style="fill:#F8B811;fill:color(display-p3 0.9725 0.7216 0.0667);fill-opacity:1;"/>
<path d="M265.043 378.562C268.752 378.892 272.475 378.709 276.188 378.753C279.435 378.703 282.693 378.913 285.93 378.526C288.002 381.866 288.534 386.149 287.069 389.834C285.297 394.613 280.306 397.939 275.206 397.733C269.861 397.703 264.874 393.764 263.558 388.602C262.586 385.216 263.328 381.577 265.043 378.562Z" fill="#F8B811" style="fill:#F8B811;fill:color(display-p3 0.9725 0.7216 0.0667);fill-opacity:1;"/>
<path fill-rule="evenodd" clip-rule="evenodd" d="M347.68 121.356L357.802 92.1968C357.923 91.8356 358.095 91.4743 358.335 91.1667C358.641 90.7559 359.078 90.5019 359.56 90.3491C360.048 90.1943 360.592 90.1388 361.102 90.113C361.814 90.0773 362.533 90.0772 363.245 90.0772C364.057 90.0772 364.874 90.0773 365.686 90.113C366.234 90.1368 366.825 90.1884 367.351 90.3412C367.855 90.486 368.318 90.7361 368.653 91.1469L368.673 91.1707L368.691 91.1965C368.929 91.526 369.104 91.901 369.223 92.29L379.403 121.497C379.576 122.023 379.751 122.596 379.832 123.146C379.929 123.811 379.786 124.472 379.3 124.958L379.28 124.978L379.259 124.996C378.8 125.414 378.177 125.573 377.574 125.629C376.895 125.69 376.192 125.694 375.512 125.694C374.819 125.694 374.115 125.694 373.424 125.656C372.966 125.632 372.471 125.585 372.031 125.45C371.586 125.313 371.183 125.085 370.913 124.722C370.709 124.468 370.56 124.146 370.465 123.815L368.574 118.028H357.863L356.055 123.63C355.966 123.944 355.833 124.265 355.632 124.549C355.374 124.94 354.991 125.196 354.559 125.365C354.128 125.533 353.634 125.599 353.176 125.635C352.558 125.682 351.931 125.69 351.312 125.69C350.663 125.69 349.986 125.68 349.341 125.605C348.732 125.533 348.125 125.337 347.702 124.87C347.472 125.073 347.192 125.216 346.892 125.325C346.468 125.478 345.995 125.553 345.547 125.605C344.934 125.674 344.303 125.69 343.685 125.69C342.858 125.69 341.923 125.682 341.107 125.543C340.546 125.448 339.954 125.275 339.52 124.914C339.206 124.668 338.944 124.349 338.748 123.985L330.99 111.798V123.39C330.99 123.821 330.857 124.233 330.601 124.579C330.331 124.942 329.93 125.184 329.526 125.323C329.137 125.47 328.684 125.547 328.253 125.603C327.676 125.674 327.075 125.69 326.493 125.69C325.91 125.69 325.316 125.672 324.737 125.603C324.302 125.551 323.846 125.474 323.435 125.317C323.05 125.17 322.687 124.962 322.415 124.648L322.391 124.62C322.105 124.269 321.962 123.84 321.962 123.39V92.3475C321.962 91.8911 322.103 91.4723 322.391 91.1171L322.415 91.0894C322.695 90.7659 323.07 90.5555 323.469 90.4166C323.872 90.2776 324.316 90.2121 324.737 90.1606C325.316 90.0911 325.91 90.0732 326.493 90.0732C327.077 90.0732 327.676 90.0891 328.253 90.1606C328.67 90.2121 329.111 90.2777 329.51 90.4146C329.932 90.5615 330.331 90.7916 330.603 91.1568C330.861 91.5061 330.992 91.911 330.992 92.3456V102.588L338.458 91.7442C338.637 91.4346 338.855 91.1588 339.117 90.9365C339.417 90.6686 339.796 90.482 340.191 90.355L340.224 90.3451C340.635 90.2261 341.074 90.1625 341.5 90.1288C342.07 90.0811 342.649 90.0732 343.221 90.0732C343.822 90.0732 344.438 90.0892 345.037 90.1586C345.477 90.2102 345.934 90.2876 346.343 90.4325C346.763 90.5714 347.17 90.8154 347.444 91.1826C347.698 91.5259 347.833 91.9189 347.833 92.3456C347.833 92.8358 347.702 93.3021 347.496 93.7426L347.478 93.7784C347.208 94.3023 346.871 94.8263 346.555 95.3224L346.529 95.3641L337.988 106.579L347.4 120.816L347.426 120.864C347.508 121.016 347.597 121.179 347.684 121.346L347.68 121.356ZM288.124 121.792C288.161 121.671 288.201 121.55 288.241 121.433L298.388 92.1987C298.509 91.8375 298.682 91.4763 298.922 91.1687C299.227 90.7579 299.664 90.5039 300.146 90.3511C300.634 90.1963 301.178 90.1407 301.688 90.1149C302.399 90.0792 303.119 90.0792 303.831 90.0792C304.643 90.0792 305.463 90.0792 306.273 90.1149C306.818 90.1387 307.412 90.1903 307.938 90.3431C308.44 90.488 308.904 90.7381 309.237 91.1489L309.257 91.1727L309.275 91.1985C309.515 91.5279 309.69 91.903 309.809 92.292L319.99 121.499C320.162 122.025 320.339 122.598 320.418 123.148C320.516 123.813 320.373 124.474 319.887 124.96L319.867 124.98L319.845 124.997C319.387 125.416 318.765 125.575 318.162 125.631C317.483 125.692 316.781 125.696 316.1 125.696C315.407 125.696 314.703 125.696 314.012 125.658C313.554 125.635 313.06 125.587 312.619 125.452C312.175 125.315 311.774 125.087 311.502 124.724C311.297 124.47 311.149 124.148 311.053 123.817L309.162 118.03H298.451L296.643 123.632C296.554 123.946 296.421 124.267 296.221 124.551C295.963 124.942 295.578 125.198 295.147 125.367C294.716 125.535 294.222 125.601 293.764 125.637C293.147 125.684 292.52 125.692 291.9 125.692C291.249 125.692 290.575 125.682 289.93 125.607C289.309 125.533 288.687 125.331 288.265 124.843C288.225 124.797 288.189 124.751 288.156 124.704C287.907 125.047 287.54 125.261 287.135 125.402L287.114 125.41L287.09 125.418C286.651 125.551 286.169 125.607 285.713 125.638C285.02 125.686 284.315 125.694 283.623 125.694C283.025 125.694 282.418 125.686 281.825 125.638C281.378 125.603 280.9 125.535 280.481 125.371C280.064 125.206 279.691 124.97 279.427 124.597L279.413 124.579L279.402 124.559C279.251 124.327 279.13 124.075 279.034 123.813L276.078 116.472C275.772 115.759 275.444 115.041 275.079 114.342C274.825 113.856 274.516 113.384 274.135 112.987C273.835 112.675 273.488 112.443 273.089 112.28C272.64 112.098 272.13 112.038 271.648 112.038H270.733V123.45C270.733 123.902 270.576 124.331 270.292 124.658C270.025 124.988 269.642 125.21 269.227 125.353L269.191 125.365C268.798 125.486 268.377 125.557 267.971 125.609C267.393 125.68 266.792 125.696 266.21 125.696C265.627 125.696 265.033 125.678 264.454 125.609C264.043 125.559 263.616 125.488 263.22 125.365L263.184 125.353C262.761 125.206 262.362 124.976 262.092 124.61C261.84 124.271 261.703 123.87 261.703 123.448V93.5244C261.703 92.5837 261.949 91.651 262.686 91.0159C263.301 90.484 264.053 90.234 264.863 90.234H273.394C274.129 90.234 274.871 90.2419 275.605 90.2895C276.127 90.3213 276.649 90.365 277.171 90.4146L277.201 90.4185L277.23 90.4225C278.558 90.615 279.866 90.9484 281.098 91.4803C282.24 91.9704 283.289 92.6393 284.169 93.5204C285.034 94.3857 285.685 95.4018 286.127 96.5429C286.609 97.7853 286.788 99.1168 286.788 100.444C286.788 101.576 286.655 102.719 286.318 103.8C286.002 104.815 285.532 105.753 284.887 106.597C284.248 107.434 283.47 108.139 282.591 108.718C282.301 108.909 282.001 109.085 281.696 109.248C282.083 109.593 282.436 109.978 282.757 110.387C283.206 110.959 283.603 111.572 283.952 112.211C284.343 112.927 284.686 113.674 284.994 114.422L287.786 120.939L287.794 120.957C287.902 121.229 288.017 121.517 288.12 121.802L288.124 121.792ZM200.007 107.398C200.007 110.137 199.702 112.981 198.753 115.565C197.953 117.74 196.761 119.705 195.048 121.282C193.373 122.826 191.377 123.88 189.201 124.533C186.673 125.293 183.942 125.539 181.311 125.539H173.448C172.632 125.539 171.88 125.293 171.261 124.757C170.525 124.122 170.281 123.19 170.281 122.249V93.5264C170.281 92.5857 170.527 91.6529 171.261 91.0178C171.88 90.482 172.632 90.2359 173.448 90.2359H181.894C184.506 90.2359 187.253 90.4959 189.741 91.3314C191.839 92.0359 193.758 93.1076 195.356 94.6496C196.939 96.1797 198.082 98.0333 198.84 100.095C199.696 102.425 200.007 104.928 200.007 107.4V107.398ZM221.921 123.817L220.03 118.03H209.319L207.511 123.632C207.422 123.946 207.289 124.267 207.088 124.551C206.83 124.942 206.447 125.198 206.015 125.367C205.584 125.535 205.09 125.601 204.631 125.637C204.014 125.684 203.387 125.692 202.768 125.692C202.117 125.692 201.442 125.682 200.797 125.607C200.176 125.533 199.555 125.331 199.132 124.843C198.7 124.343 198.581 123.708 198.674 123.067C198.753 122.523 198.932 121.959 199.106 121.431L209.253 92.1968C209.375 91.8356 209.547 91.4743 209.787 91.1667C210.093 90.7559 210.53 90.5019 211.012 90.3491C211.5 90.1943 212.044 90.1388 212.554 90.113C213.266 90.0773 213.985 90.0772 214.697 90.0772C215.509 90.0772 216.328 90.0773 217.138 90.113C217.684 90.1368 218.277 90.1884 218.803 90.3412C219.305 90.486 219.77 90.7361 220.103 91.1469L220.123 91.1707L220.141 91.1965C220.381 91.526 220.555 91.901 220.675 92.29L230.855 121.497C231.028 122.023 231.205 122.596 231.284 123.146C231.381 123.811 231.238 124.472 230.752 124.958L230.732 124.978L230.711 124.996C230.252 125.414 229.631 125.573 229.028 125.629C228.349 125.69 227.646 125.694 226.966 125.694C226.273 125.694 225.569 125.694 224.878 125.656C224.419 125.632 223.925 125.585 223.485 125.45C223.04 125.313 222.639 125.085 222.367 124.722C222.163 124.468 222.014 124.146 221.919 123.815L221.921 123.817ZM254.136 106.253C254.235 106.301 254.333 106.353 254.43 106.404C255.337 106.892 256.137 107.531 256.815 108.307C257.518 109.109 258.048 110.028 258.423 111.024C258.838 112.128 259.01 113.295 259.01 114.471C259.01 115.682 258.85 116.889 258.461 118.038C258.111 119.07 257.615 120.044 256.944 120.905C256.293 121.739 255.518 122.451 254.64 123.043C253.751 123.642 252.785 124.11 251.777 124.476C250.721 124.859 249.619 125.115 248.508 125.281C247.262 125.468 245.996 125.537 244.737 125.537H235.987C235.176 125.537 234.426 125.287 233.81 124.755C233.074 124.12 232.83 123.188 232.83 122.247V93.5244C232.83 92.5837 233.076 91.651 233.81 91.0159C234.426 90.484 235.178 90.234 235.987 90.234H244.241C246.029 90.234 247.895 90.359 249.637 90.7798C251.038 91.1191 252.394 91.6609 253.573 92.5043C254.688 93.3021 255.549 94.3222 256.147 95.5566C256.786 96.8763 257.028 98.3231 257.028 99.7797C257.028 100.651 256.917 101.514 256.678 102.352C256.45 103.153 256.101 103.914 255.639 104.606C255.22 105.231 254.712 105.777 254.134 106.255L254.136 106.253ZM179.31 97.8567V117.863H181.615C183.006 117.863 184.518 117.722 185.828 117.226C186.864 116.833 187.773 116.24 188.505 115.406C189.291 114.509 189.803 113.42 190.136 112.282C190.573 110.792 190.714 109.182 190.714 107.635C190.714 106.269 190.567 104.91 190.208 103.59C189.906 102.477 189.416 101.449 188.68 100.554C187.959 99.6785 187.056 99.0335 186.018 98.583C184.661 97.9956 182.972 97.8547 181.509 97.8547H179.308L179.31 97.8567ZM214.612 101.411L211.633 110.514H217.62L214.612 101.411ZM241.757 97.5967V103.788H244.305C244.886 103.788 245.63 103.745 246.176 103.527C246.555 103.374 246.912 103.165 247.198 102.868C247.47 102.584 247.661 102.25 247.79 101.893C247.931 101.475 248.002 101.04 248.002 100.587C248.002 100.125 247.94 99.6607 247.774 99.226C247.651 98.9026 247.464 98.6187 247.2 98.3925C246.881 98.1206 246.484 97.944 246.085 97.8229C245.44 97.6284 244.62 97.5947 243.949 97.5947H241.757V97.5967ZM241.757 111.046V118.071H245.408C246.067 118.071 246.785 118.022 247.418 117.827C247.873 117.688 248.298 117.478 248.665 117.176C249.002 116.898 249.256 116.561 249.441 116.164C249.651 115.716 249.723 115.208 249.723 114.715C249.723 114.168 249.643 113.618 249.431 113.11C249.254 112.689 248.994 112.342 248.645 112.05C248.228 111.703 247.71 111.479 247.194 111.33C246.375 111.092 245.39 111.046 244.541 111.046H241.759H241.757ZM270.739 97.7019V104.676H272.974C273.688 104.676 274.424 104.604 275.107 104.386C275.607 104.225 276.087 103.997 276.486 103.652C276.818 103.366 277.068 103.017 277.234 102.612C277.427 102.141 277.502 101.635 277.502 101.129C277.502 100.401 277.371 99.6527 276.963 99.0375C276.564 98.4401 275.887 98.1206 275.214 97.9401C274.897 97.8547 274.549 97.811 274.224 97.7713C273.684 97.7059 273.109 97.7019 272.567 97.7019H270.739ZM303.746 101.411L300.767 110.514H306.755L303.746 101.411ZM363.16 101.411L360.179 110.514H366.166L363.158 101.411H363.16Z" fill="#F8B811" style="fill:#F8B811;fill:color(display-p3 0.9725 0.7216 0.0667);fill-opacity:1;"/>
<path d="M428.45 524.876C457.964 537.343 485.579 552.811 511.66 571.414C524.488 553.753 537.317 536.101 550.145 518.438C519.86 496.788 487.716 478.783 453.409 464.333C445.086 484.518 436.773 504.701 428.45 524.878V524.876Z" fill="#0D2157" style="fill:#0D2157;fill:color(display-p3 0.0510 0.1294 0.3412);fill-opacity:1;"/>
<path fill-rule="evenodd" clip-rule="evenodd" d="M510.571 564.831C521.538 549.732 532.506 534.636 543.475 519.537C515.995 500.285 486.762 483.915 455.968 470.59C448.853 487.846 441.745 505.104 434.628 522.357C461.328 533.975 486.687 548.175 510.571 564.831Z" stroke="#F8B811" style="stroke:#F8B811;stroke:color(display-p3 0.9725 0.7216 0.0667);stroke-opacity:1;" stroke-width="1.21632" stroke-miterlimit="10"/>
<path d="M486.766 530.674C470.407 521.377 453.646 513.119 436.305 505.822C433.691 512.17 431.069 518.527 428.448 524.876C448.067 525.465 467.407 527.416 486.764 530.674H486.766Z" fill="#101830" style="fill:#101830;fill:color(display-p3 0.0627 0.0941 0.1882);fill-opacity:1;"/>
<path d="M121.697 524.876C92.1827 537.343 64.5676 552.811 38.4846 571.414C25.6564 553.753 12.8282 536.101 0 518.438C30.2843 496.788 62.4361 478.783 96.7432 464.333C105.058 484.518 113.372 504.701 121.695 524.878L121.697 524.876Z" fill="#0D2157" style="fill:#0D2157;fill:color(display-p3 0.0510 0.1294 0.3412);fill-opacity:1;"/>
<path fill-rule="evenodd" clip-rule="evenodd" d="M39.5759 564.831C63.46 548.175 88.8167 533.975 115.519 522.357C108.404 505.104 101.294 487.846 94.1849 470.59C63.3886 483.913 34.152 500.285 6.67188 519.535C17.6385 534.634 28.6072 549.73 39.5759 564.829V564.831Z" stroke="#F8B811" style="stroke:#F8B811;stroke:color(display-p3 0.9725 0.7216 0.0667);stroke-opacity:1;" stroke-width="1.21632" stroke-miterlimit="10"/>
<path d="M63.3872 530.674C79.7459 521.377 96.4975 513.119 113.839 505.822C116.452 512.17 119.074 518.527 121.695 524.876C102.076 525.465 82.7366 527.408 63.3872 530.674Z" fill="#101830" style="fill:#101830;fill:color(display-p3 0.0627 0.0941 0.1882);fill-opacity:1;"/>
<path d="M486.84 530.716C355.266 456.115 194.979 456.089 63.3872 530.675C52.4682 511.768 41.5392 492.871 30.6201 473.972C182.306 387.781 367.953 387.804 519.615 474.029C508.688 492.92 497.767 511.817 486.84 530.716Z" fill="#122966" style="fill:#122966;fill:color(display-p3 0.0706 0.1608 0.4000);fill-opacity:1;"/>
<path fill-rule="evenodd" clip-rule="evenodd" d="M485.073 524.283C494.414 508.126 503.752 491.968 513.093 475.814C365.059 393.542 185.195 393.52 37.1406 475.758C46.48 491.918 55.8212 508.077 65.1566 524.239C196.042 451.902 354.199 451.924 485.073 524.281V524.283Z" stroke="#F8B811" style="stroke:#F8B811;stroke:color(display-p3 0.9725 0.7216 0.0667);stroke-opacity:1;" stroke-width="1.21632" stroke-miterlimit="10"/>
<path d="M79.152 483.095C80.2912 485.319 81.0532 487.326 81.4402 489.13C81.8232 490.928 81.8749 492.523 81.595 493.932C81.3112 495.335 80.7218 496.566 79.8247 497.616C78.9297 498.663 77.6953 499.592 76.1275 500.396L71.9005 502.559C71.5968 502.714 71.2832 502.722 70.9518 502.585C70.6204 502.446 70.3168 502.103 70.035 501.553L59.2132 480.41C58.9313 479.86 58.8301 479.411 58.9115 479.062C58.9929 478.715 59.1834 478.463 59.4851 478.308L64.0238 475.986C65.6035 475.178 67.072 474.748 68.4294 474.692C69.7908 474.632 71.0987 474.908 72.3569 475.516C73.619 476.127 74.8237 477.062 75.9609 478.32C77.102 479.584 78.1617 481.172 79.1481 483.097L79.152 483.095ZM75.5143 485.174C74.9249 484.023 74.2839 483.011 73.5813 482.12C72.8808 481.237 72.1327 480.546 71.3289 480.046C70.5252 479.546 69.6778 479.26 68.7946 479.205C67.9056 479.151 66.9133 479.399 65.8059 479.967L63.9899 480.898L72.4165 497.36L74.2878 496.401C75.2742 495.897 76.0164 495.298 76.5085 494.603C77.0047 493.912 77.2984 493.093 77.3897 492.158C77.479 491.225 77.3659 490.178 77.0524 489.013C76.7408 487.85 76.2267 486.57 75.5123 485.176L75.5143 485.174ZM102.119 486.327C102.429 486.742 102.661 487.082 102.806 487.34C102.951 487.598 103 487.818 102.961 488C102.911 488.177 102.766 488.342 102.514 488.489C102.268 488.634 101.907 488.804 101.45 489.003C100.968 489.209 100.591 489.364 100.317 489.459C100.037 489.554 99.8192 489.602 99.6485 489.606C99.4838 489.606 99.3528 489.568 99.2497 489.489C99.1504 489.415 99.0412 489.296 98.938 489.146L95.5742 484.635L88.6838 487.602L89.6384 492.986C89.6781 493.186 89.696 493.359 89.684 493.504C89.6801 493.654 89.6185 493.789 89.5153 493.92C89.4121 494.051 89.2395 494.18 88.9993 494.313C88.7612 494.448 88.4378 494.603 88.0329 494.778C87.5983 494.964 87.253 495.089 86.991 495.157C86.7271 495.222 86.5206 495.202 86.3658 495.097C86.2031 494.986 86.0801 494.79 85.9908 494.508C85.9035 494.224 85.8221 493.837 85.7367 493.335L81.8053 468.707C81.7656 468.466 81.7557 468.26 81.7756 468.093C81.7875 467.925 81.8668 467.774 81.9998 467.631C82.1367 467.484 82.3432 467.341 82.629 467.194C82.9088 467.051 83.2918 466.879 83.7741 466.67C84.3278 466.432 84.7743 466.248 85.1097 466.127C85.451 466.004 85.7269 465.94 85.9412 465.934C86.1555 465.928 86.3321 465.978 86.473 466.081C86.6119 466.192 86.7668 466.353 86.9255 466.573L102.125 486.326L102.119 486.327ZM85.8261 471.568L85.8122 471.574L87.8504 483.313L92.9764 481.106L85.8261 471.568ZM119.016 481.16C119.071 481.301 119.097 481.428 119.097 481.545C119.097 481.66 119.04 481.775 118.923 481.896C118.798 482.013 118.611 482.138 118.341 482.273C118.073 482.408 117.7 482.567 117.226 482.747C116.825 482.902 116.501 483.009 116.251 483.075C116.001 483.14 115.791 483.166 115.626 483.146C115.462 483.124 115.33 483.075 115.227 482.983C115.13 482.89 115.029 482.775 114.932 482.636L111.072 477.586C110.623 477.018 110.206 476.518 109.825 476.093C109.44 475.662 109.065 475.329 108.702 475.085C108.339 474.839 107.97 474.696 107.595 474.64C107.226 474.589 106.835 474.638 106.434 474.793L105.253 475.246L108.984 484.964C109.033 485.091 109.049 485.224 109.026 485.349C109.004 485.482 108.934 485.607 108.817 485.728C108.7 485.843 108.527 485.97 108.303 486.103C108.083 486.234 107.783 486.373 107.414 486.514C107.053 486.653 106.741 486.75 106.481 486.804C106.221 486.857 106.009 486.877 105.844 486.871C105.676 486.857 105.541 486.812 105.447 486.73C105.348 486.645 105.271 486.536 105.223 486.409L96.3581 463.309C96.1378 462.731 96.0843 462.275 96.2033 461.937C96.3204 461.6 96.5367 461.372 96.8503 461.251L101.661 459.405C102.145 459.218 102.558 459.077 102.881 458.982C103.205 458.889 103.506 458.812 103.78 458.744C104.582 458.605 105.348 458.597 106.08 458.722C106.813 458.841 107.499 459.109 108.135 459.52C108.77 459.931 109.345 460.479 109.865 461.173C110.383 461.866 110.833 462.717 111.222 463.731C111.546 464.577 111.766 465.384 111.877 466.143C111.987 466.909 111.994 467.621 111.897 468.29C111.806 468.957 111.611 469.576 111.314 470.153C111.02 470.735 110.629 471.255 110.155 471.729C110.504 471.802 110.847 471.924 111.193 472.092C111.538 472.261 111.891 472.493 112.25 472.787C112.61 473.081 112.979 473.422 113.354 473.833C113.729 474.236 114.122 474.708 114.535 475.242L118.035 479.661C118.369 480.104 118.605 480.427 118.74 480.646C118.877 480.856 118.972 481.027 119.022 481.16H119.016ZM107.509 465.761C107.188 464.924 106.777 464.265 106.279 463.801C105.779 463.332 105.166 463.098 104.443 463.104C104.227 463.11 103.993 463.146 103.733 463.199C103.473 463.253 103.127 463.362 102.697 463.529L101.002 464.18L103.766 471.384L105.692 470.645C106.229 470.439 106.662 470.173 106.993 469.838C107.333 469.506 107.571 469.131 107.718 468.707C107.867 468.288 107.916 467.821 107.879 467.329C107.841 466.835 107.72 466.313 107.507 465.763L107.509 465.761ZM143.589 472.245C143.634 472.372 143.654 472.503 143.638 472.63C143.62 472.751 143.553 472.874 143.44 472.991C143.323 473.102 143.156 473.223 142.938 473.348C142.721 473.473 142.432 473.601 142.076 473.728C141.727 473.855 141.427 473.938 141.179 473.982C140.933 474.025 140.731 474.037 140.57 474.025C140.413 474.005 140.282 473.954 140.191 473.872C140.094 473.785 140.018 473.674 139.973 473.547L132.447 452.685L132.418 452.697L134.533 475.488C134.555 475.672 134.547 475.833 134.499 475.98C134.452 476.127 134.37 476.256 134.241 476.379C134.116 476.492 133.94 476.609 133.719 476.712C133.495 476.815 133.215 476.925 132.89 477.042C132.558 477.161 132.279 477.248 132.034 477.296C131.79 477.345 131.578 477.361 131.403 477.339C131.229 477.318 131.08 477.274 130.953 477.204C130.83 477.127 130.725 477.02 130.643 476.889L117.908 457.928L117.879 457.938L125.404 478.8C125.45 478.929 125.47 479.058 125.454 479.187C125.436 479.308 125.368 479.431 125.251 479.55C125.126 479.663 124.958 479.786 124.745 479.909C124.533 480.03 124.249 480.157 123.894 480.284C123.545 480.411 123.245 480.495 122.999 480.539C122.753 480.582 122.546 480.596 122.386 480.584C122.225 480.566 122.092 480.515 122.003 480.433C121.909 480.344 121.842 480.231 121.796 480.104L113.556 457.27C113.314 456.593 113.257 456.033 113.388 455.583C113.521 455.13 113.802 454.829 114.241 454.672L116.73 453.775C117.174 453.614 117.575 453.525 117.928 453.511C118.285 453.497 118.619 453.558 118.934 453.705C119.244 453.852 119.552 454.086 119.841 454.41C120.131 454.733 120.439 455.148 120.75 455.662L130.29 469.473L130.35 469.451L129.03 452.713C128.953 452.114 128.923 451.6 128.933 451.161C128.949 450.726 129.01 450.353 129.121 450.046C129.234 449.738 129.409 449.484 129.639 449.286C129.875 449.087 130.173 448.925 130.528 448.798L133.094 447.871C133.354 447.777 133.594 447.744 133.817 447.772C134.037 447.791 134.243 447.871 134.426 448.01C134.612 448.141 134.779 448.325 134.936 448.559C135.093 448.794 135.23 449.079 135.349 449.411L143.587 472.247L143.589 472.245ZM163.387 466.035C163.633 466.492 163.811 466.859 163.918 467.135C164.024 467.411 164.041 467.637 163.974 467.812C163.9 467.98 163.732 468.121 163.462 468.23C163.198 468.337 162.815 468.454 162.333 468.583C161.827 468.718 161.428 468.816 161.146 468.869C160.856 468.925 160.632 468.939 160.463 468.917C160.301 468.893 160.177 468.838 160.086 468.742C159.999 468.655 159.908 468.522 159.826 468.357L157.155 463.404L149.905 465.335L150.066 470.8C150.078 471.007 150.07 471.179 150.036 471.322C150.011 471.469 149.929 471.596 149.808 471.709C149.687 471.822 149.497 471.926 149.241 472.025C148.983 472.124 148.643 472.229 148.219 472.342C147.762 472.463 147.403 472.537 147.131 472.565C146.861 472.592 146.659 472.543 146.522 472.416C146.379 472.283 146.284 472.07 146.238 471.777C146.192 471.485 146.169 471.088 146.157 470.578L145.853 445.64C145.847 445.396 145.869 445.19 145.913 445.031C145.95 444.864 146.049 444.727 146.2 444.604C146.357 444.479 146.583 444.368 146.887 444.265C147.185 444.164 147.589 444.048 148.096 443.914C148.679 443.759 149.147 443.642 149.497 443.568C149.852 443.497 150.134 443.473 150.346 443.499C150.558 443.525 150.725 443.598 150.85 443.721C150.971 443.852 151.102 444.033 151.225 444.275L163.387 466.029V466.035ZM149.415 449.059L149.399 449.063L149.707 460.973L155.101 459.536L149.415 449.057V449.059ZM186.042 454.71C186.229 455.662 186.298 456.541 186.259 457.355C186.219 458.161 186.088 458.895 185.87 459.552C185.645 460.211 185.344 460.796 184.963 461.318C184.578 461.838 184.129 462.284 183.623 462.675C183.115 463.06 182.553 463.382 181.94 463.634C181.327 463.892 180.628 464.094 179.846 464.247L174.661 465.257C174.331 465.321 174.028 465.242 173.748 465.017C173.468 464.793 173.27 464.378 173.153 463.773L168.61 440.46C168.491 439.853 168.519 439.395 168.695 439.083C168.868 438.771 169.122 438.583 169.451 438.517L174.343 437.565C175.538 437.333 176.574 437.277 177.457 437.39C178.338 437.503 179.116 437.783 179.791 438.23C180.472 438.676 181.041 439.295 181.506 440.091C181.976 440.885 182.321 441.857 182.545 443.014C182.672 443.663 182.728 444.281 182.722 444.876C182.714 445.471 182.637 446.027 182.502 446.537C182.363 447.055 182.158 447.519 181.889 447.946C181.625 448.371 181.299 448.734 180.91 449.038C181.488 449.071 182.049 449.21 182.585 449.464C183.121 449.718 183.615 450.083 184.066 450.56C184.522 451.034 184.921 451.623 185.262 452.31C185.608 453.005 185.87 453.803 186.046 454.711L186.042 454.71ZM178.717 444.441C178.612 443.906 178.457 443.437 178.255 443.03C178.054 442.629 177.804 442.306 177.509 442.072C177.211 441.836 176.866 441.685 176.471 441.601C176.076 441.524 175.572 441.542 174.958 441.661L172.96 442.05L174.312 448.988L176.52 448.557C177.092 448.446 177.532 448.266 177.834 448.01C178.14 447.76 178.372 447.452 178.537 447.083C178.699 446.714 178.791 446.301 178.82 445.848C178.842 445.39 178.812 444.928 178.717 444.441ZM181.97 455.71C181.849 455.089 181.662 454.547 181.418 454.082C181.174 453.624 180.874 453.259 180.515 452.985C180.162 452.709 179.743 452.528 179.253 452.433C178.765 452.346 178.162 452.368 177.435 452.511L175.087 452.969L176.572 460.584L179.436 460.026C179.987 459.919 180.436 459.75 180.785 459.516C181.13 459.288 181.408 458.984 181.627 458.619C181.839 458.256 181.982 457.833 182.049 457.337C182.115 456.849 182.089 456.305 181.974 455.712L181.97 455.71ZM205.201 458.774C205.229 458.923 205.231 459.054 205.209 459.167C205.187 459.28 205.11 459.383 204.973 459.48C204.83 459.572 204.622 459.663 204.334 459.744C204.044 459.826 203.651 459.913 203.151 460.004C202.728 460.082 202.389 460.129 202.131 460.147C201.873 460.165 201.663 460.153 201.504 460.102C201.345 460.05 201.226 459.977 201.141 459.869C201.061 459.76 200.984 459.627 200.914 459.472L198.051 453.795C197.715 453.156 197.398 452.586 197.1 452.1C196.803 451.606 196.495 451.209 196.181 450.901C195.87 450.592 195.532 450.385 195.175 450.26C194.822 450.143 194.429 450.119 194.006 450.197L192.762 450.425L194.635 460.665C194.661 460.798 194.653 460.933 194.606 461.05C194.56 461.175 194.467 461.286 194.33 461.385C194.193 461.477 194 461.57 193.756 461.657C193.516 461.745 193.195 461.826 192.808 461.898C192.427 461.967 192.103 462.005 191.837 462.009C191.571 462.013 191.359 461.993 191.198 461.957C191.035 461.913 190.91 461.842 190.835 461.747C190.754 461.646 190.698 461.522 190.674 461.389L186.223 437.051C186.112 436.444 186.145 435.985 186.322 435.674C186.501 435.364 186.753 435.179 187.084 435.118L192.153 434.191C192.665 434.098 193.095 434.034 193.431 434.001C193.766 433.969 194.078 433.949 194.358 433.933C195.169 433.945 195.925 434.078 196.624 434.338C197.32 434.59 197.948 434.979 198.495 435.501C199.043 436.021 199.509 436.666 199.89 437.444C200.273 438.22 200.557 439.141 200.754 440.208C200.916 441.097 200.984 441.933 200.954 442.699C200.92 443.471 200.795 444.173 200.579 444.813C200.365 445.452 200.059 446.025 199.662 446.535C199.265 447.053 198.787 447.492 198.231 447.871C198.561 448.008 198.876 448.19 199.186 448.418C199.496 448.647 199.799 448.942 200.099 449.296C200.399 449.651 200.696 450.056 200.99 450.528C201.284 450.992 201.583 451.53 201.891 452.13L204.516 457.121C204.761 457.617 204.933 457.978 205.027 458.218C205.122 458.45 205.183 458.635 205.209 458.776L205.201 458.774ZM196.733 441.516C196.572 440.633 196.289 439.911 195.886 439.363C195.481 438.809 194.921 438.466 194.211 438.341C193.996 438.307 193.76 438.299 193.494 438.303C193.228 438.307 192.869 438.351 192.415 438.434L190.629 438.762L192.016 446.351L194.044 445.979C194.612 445.876 195.084 445.694 195.473 445.426C195.866 445.164 196.169 444.838 196.392 444.447C196.616 444.062 196.751 443.614 196.806 443.122C196.86 442.629 196.836 442.094 196.731 441.514L196.733 441.516ZM224.082 454.698C224.275 455.178 224.412 455.565 224.485 455.851C224.559 456.136 224.549 456.365 224.463 456.529C224.37 456.688 224.187 456.809 223.906 456.887C223.632 456.964 223.239 457.035 222.745 457.109C222.227 457.184 221.82 457.236 221.532 457.258C221.238 457.279 221.014 457.27 220.849 457.228C220.689 457.186 220.574 457.115 220.494 457.012C220.417 456.914 220.343 456.773 220.282 456.601L218.194 451.375L210.77 452.465L210.303 457.915C210.292 458.119 210.264 458.29 210.214 458.429C210.172 458.573 210.077 458.689 209.944 458.788C209.811 458.887 209.609 458.968 209.345 459.034C209.079 459.103 208.728 459.169 208.293 459.232C207.825 459.3 207.46 459.332 207.188 459.328C206.918 459.324 206.721 459.25 206.598 459.109C206.469 458.96 206.4 458.738 206.39 458.442C206.378 458.147 206.4 457.75 206.447 457.244L209 432.435C209.021 432.193 209.067 431.99 209.129 431.835C209.184 431.675 209.297 431.55 209.464 431.445C209.635 431.339 209.871 431.254 210.184 431.187C210.492 431.121 210.907 431.052 211.427 430.976C212.024 430.889 212.502 430.825 212.858 430.796C213.219 430.764 213.501 430.774 213.711 430.823C213.919 430.871 214.076 430.966 214.187 431.101C214.292 431.244 214.402 431.441 214.497 431.695L224.086 454.7L224.082 454.698ZM212.147 436.235L212.133 436.237L211.075 448.105L216.599 447.295L212.149 436.237L212.147 436.235ZM235.083 430.629C235.128 431.036 235.156 431.379 235.164 431.675C235.17 431.964 235.16 432.197 235.126 432.373C235.093 432.558 235.045 432.693 234.977 432.78C234.914 432.875 234.831 432.927 234.741 432.937L229.8 433.493L232.253 455.319C232.267 455.454 232.251 455.587 232.195 455.708C232.14 455.823 232.04 455.928 231.897 456.015C231.755 456.097 231.552 456.178 231.296 456.249C231.04 456.321 230.719 456.379 230.334 456.422C229.949 456.466 229.623 456.48 229.357 456.466C229.091 456.452 228.877 456.418 228.718 456.371C228.559 456.317 228.438 456.236 228.359 456.136C228.278 456.029 228.232 455.904 228.218 455.769L225.767 433.945L220.824 434.501C220.724 434.513 220.631 434.479 220.548 434.402C220.47 434.33 220.395 434.209 220.321 434.036C220.256 433.87 220.188 433.647 220.129 433.364C220.069 433.074 220.022 432.733 219.976 432.326C219.929 431.911 219.901 431.554 219.893 431.258C219.885 430.962 219.901 430.722 219.929 430.545C219.96 430.361 220.01 430.232 220.068 430.147C220.131 430.059 220.216 430.014 220.316 430.004L234.235 428.44C234.324 428.43 234.412 428.456 234.499 428.525C234.586 428.595 234.662 428.71 234.735 428.882C234.807 429.047 234.868 429.279 234.928 429.569C234.987 429.859 235.037 430.214 235.085 430.629H235.083ZM253.868 452.38C254.027 452.872 254.134 453.267 254.188 453.558C254.242 453.85 254.218 454.074 254.118 454.233C254.013 454.386 253.823 454.493 253.537 454.551C253.257 454.608 252.86 454.654 252.364 454.69C251.84 454.729 251.431 454.751 251.144 454.753C250.848 454.753 250.626 454.727 250.463 454.674C250.306 454.62 250.195 454.543 250.124 454.434C250.054 454.33 249.989 454.184 249.939 454.007L248.224 448.647L240.743 449.212L239.893 454.614C239.865 454.817 239.826 454.987 239.768 455.12C239.717 455.261 239.613 455.37 239.472 455.46C239.334 455.549 239.127 455.616 238.857 455.666C238.585 455.716 238.232 455.757 237.794 455.791C237.323 455.827 236.956 455.833 236.684 455.809C236.414 455.787 236.224 455.7 236.111 455.549C235.994 455.392 235.94 455.166 235.95 454.868C235.958 454.573 236.007 454.18 236.091 453.676L240.379 429.107C240.419 428.867 240.479 428.668 240.55 428.517C240.618 428.361 240.741 428.243 240.911 428.152C241.088 428.059 241.33 427.991 241.65 427.944C241.961 427.9 242.38 427.86 242.902 427.821C243.505 427.775 243.985 427.745 244.343 427.739C244.706 427.733 244.988 427.763 245.192 427.827C245.398 427.89 245.547 427.993 245.646 428.138C245.742 428.289 245.837 428.491 245.914 428.751L253.864 452.374L253.868 452.38ZM243.259 433.123L243.243 433.125L241.354 444.89L246.92 444.469L243.259 433.123ZM278.265 445.981C278.271 446.952 278.175 447.827 277.985 448.621C277.794 449.405 277.53 450.103 277.193 450.709C276.852 451.314 276.445 451.834 275.974 452.274C275.498 452.715 274.976 453.07 274.405 453.36C273.835 453.644 273.222 453.854 272.573 453.987C271.922 454.126 271.2 454.195 270.402 454.199L265.119 454.227C264.784 454.229 264.5 454.094 264.266 453.822C264.033 453.55 263.916 453.106 263.912 452.489L263.787 428.74C263.783 428.122 263.896 427.676 264.127 427.4C264.355 427.126 264.639 426.989 264.974 426.987L269.957 426.961C271.174 426.953 272.204 427.092 273.049 427.37C273.895 427.646 274.607 428.065 275.187 428.63C275.772 429.196 276.217 429.91 276.524 430.78C276.838 431.647 276.994 432.667 277.002 433.844C277.006 434.505 276.947 435.122 276.83 435.705C276.713 436.289 276.53 436.821 276.304 437.297C276.07 437.779 275.784 438.198 275.439 438.567C275.101 438.934 274.714 439.232 274.274 439.456C274.835 439.595 275.361 439.837 275.839 440.189C276.32 440.538 276.736 440.988 277.09 441.538C277.449 442.09 277.731 442.743 277.939 443.481C278.148 444.227 278.257 445.061 278.263 445.987L278.265 445.981ZM272.98 434.529C272.976 433.983 272.91 433.495 272.787 433.058C272.664 432.627 272.48 432.262 272.232 431.976C271.983 431.691 271.674 431.476 271.299 431.321C270.926 431.173 270.428 431.095 269.802 431.099L267.766 431.111L267.804 438.18L270.055 438.168C270.636 438.164 271.102 438.069 271.448 437.875C271.793 437.686 272.081 437.426 272.311 437.095C272.539 436.763 272.704 436.374 272.819 435.936C272.926 435.491 272.982 435.029 272.98 434.534V434.529ZM274.079 446.204C274.075 445.571 273.994 445.005 273.841 444.503C273.686 444.007 273.458 443.592 273.158 443.257C272.863 442.921 272.484 442.663 272.021 442.479C271.559 442.302 270.959 442.211 270.219 442.215L267.826 442.227L267.868 449.984L270.783 449.97C271.344 449.966 271.817 449.885 272.204 449.718C272.587 449.558 272.916 449.311 273.196 448.994C273.472 448.676 273.692 448.287 273.851 447.813C274.006 447.347 274.081 446.807 274.079 446.204ZM297.953 444.422C297.924 446.089 297.719 447.579 297.334 448.887C296.955 450.203 296.409 451.306 295.697 452.207C294.983 453.108 294.111 453.789 293.079 454.243C292.043 454.706 290.863 454.924 289.533 454.9C288.283 454.878 287.165 454.642 286.181 454.201C285.193 453.753 284.365 453.092 283.692 452.209C283.02 451.328 282.516 450.234 282.176 448.926C281.837 447.621 281.68 446.1 281.71 444.362L282.001 427.799C282.003 427.662 282.039 427.533 282.103 427.42C282.162 427.313 282.273 427.221 282.432 427.152C282.591 427.082 282.801 427.037 283.059 426.997C283.313 426.959 283.643 426.944 284.042 426.949C284.425 426.957 284.748 426.983 285 427.031C285.256 427.078 285.459 427.132 285.609 427.208C285.76 427.281 285.869 427.376 285.935 427.485C286 427.602 286.03 427.731 286.028 427.868L285.744 443.957C285.727 445.041 285.81 445.977 285.989 446.777C286.169 447.571 286.435 448.238 286.792 448.762C287.145 449.286 287.574 449.689 288.078 449.956C288.582 450.224 289.146 450.363 289.771 450.373C290.406 450.385 290.98 450.258 291.484 450.002C291.992 449.744 292.424 449.365 292.786 448.861C293.141 448.351 293.425 447.722 293.627 446.978C293.829 446.228 293.939 445.374 293.954 444.42L294.244 428.013C294.246 427.876 294.28 427.747 294.345 427.634C294.405 427.527 294.518 427.436 294.671 427.366C294.824 427.297 295.034 427.251 295.298 427.211C295.562 427.174 295.887 427.158 296.276 427.164C296.663 427.172 296.983 427.198 297.235 427.245C297.487 427.293 297.689 427.346 297.84 427.422C297.991 427.497 298.1 427.59 298.156 427.702C298.217 427.817 298.247 427.948 298.245 428.085L297.957 444.418L297.953 444.422ZM317.666 453.997C317.747 454.507 317.795 454.916 317.805 455.212C317.813 455.507 317.753 455.728 317.632 455.868C317.505 456.003 317.301 456.081 317.009 456.095C316.725 456.109 316.326 456.093 315.828 456.055C315.306 456.015 314.898 455.976 314.612 455.934C314.32 455.89 314.104 455.831 313.951 455.753C313.804 455.676 313.707 455.583 313.653 455.464C313.598 455.352 313.558 455.198 313.536 455.015L312.651 449.458L305.171 448.885L303.514 454.096C303.457 454.293 303.391 454.453 303.316 454.579C303.242 454.711 303.125 454.803 302.972 454.87C302.82 454.938 302.607 454.971 302.333 454.979C302.057 454.987 301.702 454.975 301.264 454.942C300.793 454.904 300.428 454.856 300.164 454.793C299.9 454.729 299.726 454.614 299.638 454.45C299.547 454.277 299.527 454.045 299.581 453.753C299.634 453.461 299.742 453.08 299.9 452.596L307.858 428.96C307.934 428.728 308.023 428.541 308.116 428.404C308.206 428.259 308.347 428.162 308.529 428.097C308.718 428.031 308.968 428.001 309.289 428.003C309.605 428.007 310.023 428.031 310.545 428.071C311.147 428.118 311.627 428.162 311.982 428.21C312.341 428.259 312.615 428.331 312.808 428.424C313 428.517 313.133 428.644 313.211 428.801C313.282 428.966 313.346 429.18 313.381 429.448L317.666 454.001V453.997ZM310.093 433.358L310.077 433.356L306.427 444.697L311.992 445.124L310.091 433.356L310.093 433.358ZM336.789 456.226C336.754 456.547 336.68 456.829 336.573 457.077C336.462 457.317 336.329 457.512 336.17 457.668C336.015 457.817 335.841 457.92 335.644 457.978C335.442 458.036 335.251 458.049 335.059 458.028L333.344 457.837C332.985 457.797 332.683 457.712 332.431 457.591C332.187 457.462 331.967 457.258 331.776 456.976C331.58 456.694 331.411 456.321 331.258 455.855C331.103 455.396 330.937 454.801 330.76 454.07L327.263 440.865C327.061 440.075 326.864 439.23 326.664 438.325C326.464 437.422 326.299 436.543 326.154 435.695L326.124 435.691C326.053 436.702 325.973 437.706 325.882 438.708C325.793 439.702 325.688 440.738 325.57 441.796L323.993 455.97C323.977 456.107 323.937 456.23 323.868 456.339C323.798 456.44 323.689 456.521 323.544 456.585C323.399 456.648 323.207 456.684 322.967 456.702C322.729 456.718 322.423 456.706 322.058 456.666C321.699 456.627 321.403 456.571 321.173 456.504C320.945 456.434 320.768 456.357 320.647 456.263C320.518 456.176 320.436 456.067 320.401 455.954C320.361 455.833 320.349 455.704 320.365 455.567L323.074 431.234C323.147 430.577 323.342 430.101 323.661 429.803C323.975 429.506 324.336 429.379 324.749 429.424L326.902 429.664C327.287 429.708 327.611 429.785 327.867 429.908C328.123 430.03 328.341 430.208 328.526 430.438C328.71 430.669 328.877 430.984 329.018 431.375C329.159 431.76 329.295 432.244 329.428 432.808L332.167 443.139C332.326 443.765 332.479 444.382 332.634 444.985C332.788 445.588 332.937 446.19 333.07 446.789C333.209 447.39 333.344 447.984 333.475 448.561C333.61 449.147 333.735 449.724 333.856 450.304L333.872 450.306C333.949 449.323 334.037 448.299 334.14 447.242C334.243 446.176 334.35 445.162 334.457 444.197L335.872 431.488C335.888 431.353 335.934 431.228 336.009 431.121C336.079 431.02 336.194 430.931 336.345 430.861C336.499 430.792 336.694 430.756 336.932 430.746C337.17 430.736 337.476 430.756 337.839 430.796C338.188 430.835 338.478 430.881 338.71 430.942C338.94 431.004 339.111 431.081 339.232 431.181C339.347 431.28 339.431 431.391 339.464 431.502C339.504 431.623 339.516 431.748 339.5 431.889L336.791 456.222L336.789 456.226ZM357.27 459.5C357.304 460.016 357.314 460.427 357.296 460.723C357.278 461.018 357.198 461.231 357.065 461.362C356.927 461.483 356.714 461.542 356.424 461.528C356.139 461.517 355.744 461.465 355.252 461.38C354.736 461.292 354.333 461.215 354.053 461.145C353.767 461.074 353.557 460.995 353.414 460.905C353.275 460.816 353.186 460.713 353.142 460.59C353.098 460.473 353.073 460.316 353.067 460.131L352.701 454.515L345.307 453.251L343.175 458.288C343.1 458.478 343.021 458.633 342.931 458.748C342.846 458.873 342.721 458.952 342.562 459.006C342.404 459.06 342.189 459.074 341.915 459.056C341.641 459.038 341.286 458.994 340.854 458.919C340.387 458.839 340.03 458.756 339.774 458.669C339.518 458.581 339.353 458.45 339.282 458.278C339.206 458.097 339.208 457.865 339.29 457.579C339.371 457.293 339.514 456.924 339.716 456.456L349.828 433.659C349.925 433.435 350.03 433.256 350.137 433.129C350.241 432.994 350.387 432.909 350.576 432.861C350.77 432.814 351.022 432.806 351.34 432.838C351.654 432.869 352.068 432.933 352.586 433.022C353.182 433.123 353.656 433.213 354.005 433.294C354.359 433.375 354.624 433.473 354.807 433.584C354.992 433.695 355.111 433.832 355.174 433.995C355.23 434.163 355.271 434.384 355.285 434.656L357.278 459.5H357.27ZM351.64 438.248L351.624 438.246L346.942 449.2L352.443 450.141L351.638 438.248H351.64ZM380.948 462.164C380.876 462.509 380.809 462.802 380.745 463.039C380.68 463.275 380.61 463.479 380.545 463.642C380.483 463.813 380.412 463.952 380.334 464.067C380.257 464.176 380.152 464.301 380.007 464.432C379.868 464.565 379.608 464.724 379.245 464.906C378.878 465.079 378.441 465.238 377.937 465.369C377.435 465.492 376.875 465.575 376.26 465.601C375.645 465.629 374.992 465.573 374.309 465.432C372.98 465.156 371.837 464.624 370.878 463.838C369.921 463.055 369.181 462.019 368.665 460.744C368.141 459.468 367.857 457.958 367.804 456.194C367.75 454.438 367.955 452.447 368.417 450.222C368.887 447.958 369.524 445.993 370.332 444.324C371.14 442.657 372.063 441.308 373.101 440.276C374.141 439.244 375.278 438.541 376.514 438.152C377.746 437.763 379.035 437.708 380.37 437.984C380.91 438.095 381.416 438.267 381.892 438.498C382.371 438.722 382.799 438.98 383.182 439.272C383.567 439.557 383.901 439.869 384.19 440.2C384.474 440.538 384.669 440.814 384.764 441.024C384.857 441.242 384.919 441.417 384.944 441.546C384.97 441.683 384.978 441.848 384.964 442.042C384.954 442.244 384.935 442.477 384.895 442.739C384.857 443.003 384.796 443.32 384.716 443.707C384.631 444.114 384.55 444.463 384.468 444.749C384.387 445.033 384.303 445.257 384.22 445.424C384.133 445.588 384.044 445.709 383.96 445.773C383.871 445.842 383.78 445.868 383.692 445.85C383.543 445.819 383.377 445.66 383.196 445.372C383.015 445.084 382.771 444.755 382.468 444.384C382.164 444.013 381.783 443.656 381.325 443.31C380.87 442.967 380.295 442.723 379.59 442.576C378.82 442.415 378.086 442.491 377.391 442.794C376.695 443.104 376.054 443.61 375.462 444.322C374.867 445.043 374.343 445.946 373.886 447.039C373.43 448.127 373.055 449.391 372.759 450.818C372.436 452.38 372.271 453.761 372.271 454.958C372.271 456.146 372.408 457.166 372.692 457.994C372.97 458.821 373.382 459.486 373.926 459.974C374.466 460.469 375.121 460.794 375.893 460.955C376.592 461.1 377.221 461.114 377.78 460.995C378.336 460.876 378.824 460.713 379.245 460.52C379.671 460.324 380.021 460.139 380.303 459.971C380.584 459.802 380.787 459.726 380.92 459.754C381.019 459.774 381.094 459.82 381.14 459.887C381.19 459.957 381.219 460.072 381.225 460.25C381.227 460.419 381.212 460.659 381.17 460.957C381.128 461.264 381.057 461.661 380.954 462.16L380.948 462.164ZM394.808 468.032C394.705 468.429 394.609 468.752 394.514 469.016C394.419 469.274 394.327 469.479 394.236 469.625C394.141 469.778 394.05 469.881 393.954 469.937C393.863 469.995 393.768 470.006 393.682 469.985L384.026 467.47C383.702 467.385 383.46 467.182 383.305 466.861C383.15 466.537 383.15 466.079 383.307 465.48L389.291 442.497C389.445 441.897 389.67 441.496 389.963 441.29C390.255 441.084 390.565 441.022 390.888 441.107L400.499 443.61C400.585 443.632 400.658 443.689 400.712 443.777C400.759 443.864 400.789 443.997 400.797 444.177C400.797 444.364 400.783 444.59 400.738 444.86C400.692 445.138 400.617 445.473 400.509 445.884C400.41 446.267 400.315 446.583 400.22 446.849C400.124 447.107 400.033 447.313 399.94 447.46C399.847 447.613 399.755 447.716 399.668 447.775C399.577 447.833 399.487 447.847 399.4 447.825L392.531 446.037L390.858 452.461L396.645 453.967C396.737 453.991 396.81 454.047 396.862 454.142C396.917 454.239 396.949 454.366 396.959 454.539C396.969 454.703 396.951 454.922 396.905 455.2C396.862 455.47 396.788 455.793 396.691 456.168C396.588 456.565 396.493 456.889 396.399 457.139C396.308 457.389 396.217 457.589 396.127 457.728C396.036 457.875 395.945 457.97 395.854 458.014C395.764 458.065 395.673 458.077 395.582 458.054L389.795 456.547L387.862 463.971L394.778 465.771C394.869 465.795 394.941 465.851 394.992 465.946C395.048 466.041 395.078 466.178 395.086 466.357C395.096 466.53 395.074 466.756 395.032 467.026C394.986 467.304 394.911 467.633 394.808 468.03V468.032ZM413.986 474.043C413.887 474.351 413.758 474.613 413.605 474.833C413.449 475.047 413.28 475.212 413.091 475.333C412.911 475.448 412.718 475.516 412.514 475.531C412.304 475.547 412.113 475.524 411.929 475.464L410.285 474.936C409.942 474.825 409.662 474.682 409.44 474.513C409.226 474.341 409.051 474.095 408.92 473.781C408.785 473.466 408.692 473.067 408.634 472.578C408.573 472.098 408.529 471.481 408.499 470.733L407.695 457.095C407.654 456.281 407.63 455.414 407.612 454.487C407.596 453.562 407.608 452.667 407.636 451.808L407.606 451.798C407.336 452.777 407.058 453.743 406.771 454.707C406.485 455.664 406.177 456.658 405.852 457.672L401.49 471.249C401.448 471.378 401.383 471.493 401.293 471.584C401.206 471.669 401.081 471.727 400.928 471.761C400.773 471.795 400.577 471.791 400.339 471.761C400.101 471.729 399.803 471.658 399.456 471.545C399.11 471.433 398.832 471.322 398.62 471.209C398.41 471.096 398.253 470.985 398.152 470.87C398.045 470.759 397.985 470.634 397.973 470.518C397.959 470.393 397.973 470.262 398.015 470.131L405.505 446.821C405.707 446.192 405.993 445.763 406.364 445.535C406.729 445.305 407.11 445.253 407.505 445.38L409.567 446.043C409.936 446.162 410.238 446.303 410.464 446.476C410.69 446.646 410.869 446.863 411.004 447.124C411.141 447.386 411.24 447.728 411.299 448.141C411.361 448.545 411.399 449.048 411.417 449.627L412.05 460.298C412.079 460.941 412.107 461.576 412.139 462.197C412.171 462.818 412.196 463.438 412.208 464.053C412.224 464.67 412.238 465.277 412.252 465.871C412.268 466.472 412.276 467.061 412.28 467.653L412.294 467.657C412.566 466.71 412.853 465.724 413.165 464.706C413.476 463.682 413.784 462.709 414.08 461.784L417.991 449.609C418.033 449.48 418.102 449.367 418.198 449.276C418.285 449.19 418.416 449.127 418.577 449.089C418.744 449.051 418.94 449.055 419.176 449.093C419.412 449.131 419.706 449.21 420.055 449.323C420.391 449.431 420.664 449.534 420.879 449.641C421.091 449.748 421.244 449.857 421.343 449.978C421.437 450.099 421.496 450.222 421.508 450.34C421.522 450.465 421.51 450.59 421.466 450.726L413.977 474.037L413.986 474.043ZM437.732 469.423C436.91 471.783 435.985 473.722 434.947 475.248C433.913 476.766 432.794 477.905 431.582 478.677C430.371 479.441 429.073 479.864 427.698 479.941C426.321 480.017 424.796 479.768 423.133 479.187L418.65 477.625C418.329 477.514 418.106 477.29 417.977 476.956C417.848 476.623 417.888 476.165 418.091 475.581L425.902 453.152C426.104 452.568 426.36 452.185 426.67 452.003C426.977 451.82 427.289 451.784 427.61 451.897L432.427 453.574C434.102 454.158 435.428 454.924 436.406 455.864C437.388 456.809 438.093 457.944 438.524 459.272C438.954 460.608 439.107 462.124 438.986 463.815C438.861 465.513 438.446 467.377 437.734 469.419L437.732 469.423ZM433.715 468.228C434.14 467.008 434.427 465.845 434.586 464.722C434.743 463.604 434.725 462.586 434.531 461.659C434.336 460.733 433.957 459.923 433.388 459.246C432.814 458.565 431.947 458.022 430.774 457.613L428.847 456.942L422.764 474.406L424.751 475.099C425.797 475.462 426.741 475.587 427.585 475.462C428.426 475.345 429.222 474.99 429.962 474.41C430.698 473.829 431.379 473.025 432.004 471.995C432.629 470.965 433.199 469.711 433.715 468.232V468.228ZM447.956 486.123C447.809 486.506 447.678 486.818 447.553 487.07C447.43 487.316 447.317 487.51 447.208 487.645C447.097 487.786 446.996 487.879 446.892 487.925C446.795 487.973 446.698 487.973 446.617 487.943L437.301 484.365C436.987 484.244 436.771 484.015 436.654 483.678C436.537 483.341 436.589 482.882 436.809 482.307L445.325 460.135C445.547 459.558 445.813 459.185 446.126 459.012C446.44 458.839 446.753 458.814 447.067 458.935L456.337 462.495C456.42 462.527 456.486 462.59 456.527 462.683C456.565 462.775 456.581 462.912 456.567 463.092C456.547 463.277 456.506 463.501 456.432 463.763C456.357 464.035 456.242 464.36 456.091 464.755C455.948 465.124 455.821 465.428 455.696 465.682C455.575 465.926 455.46 466.123 455.351 466.258C455.239 466.401 455.138 466.492 455.045 466.541C454.948 466.589 454.856 466.593 454.773 466.559L448.147 464.015L445.767 470.211L451.35 472.356C451.437 472.39 451.505 472.453 451.544 472.555C451.59 472.658 451.606 472.787 451.596 472.959C451.588 473.126 451.544 473.34 451.469 473.61C451.395 473.874 451.288 474.188 451.149 474.549C451.002 474.932 450.871 475.242 450.752 475.482C450.633 475.72 450.52 475.908 450.415 476.037C450.308 476.172 450.207 476.258 450.109 476.29C450.014 476.329 449.923 476.333 449.836 476.3L444.253 474.156L441.5 481.318L448.17 483.88C448.258 483.914 448.323 483.978 448.365 484.079C448.411 484.18 448.425 484.317 448.413 484.498C448.401 484.67 448.357 484.893 448.284 485.157C448.206 485.428 448.095 485.746 447.948 486.129L447.956 486.123ZM464.152 494.458C464.091 494.603 464.013 494.72 463.916 494.803C463.817 494.893 463.684 494.94 463.503 494.95C463.329 494.962 463.106 494.932 462.834 494.865C462.561 494.798 462.233 494.684 461.846 494.522C461.231 494.266 460.804 494.047 460.562 493.869C460.316 493.696 460.163 493.515 460.104 493.333C460.04 493.158 460.014 492.962 460.022 492.753L459.461 478.504L454.473 490.436C454.416 490.574 454.334 490.69 454.231 490.771C454.136 490.848 453.995 490.9 453.828 490.906C453.658 490.92 453.445 490.894 453.193 490.836C452.945 490.779 452.632 490.672 452.269 490.521C451.909 490.37 451.618 490.225 451.393 490.084C451.167 489.943 451 489.812 450.891 489.679C450.78 489.546 450.715 489.419 450.693 489.292C450.675 489.159 450.699 489.022 450.756 488.884L460.653 465.2C460.715 465.053 460.792 464.946 460.899 464.866C461.005 464.793 461.142 464.749 461.31 464.741C461.479 464.733 461.685 464.767 461.945 464.827C462.203 464.888 462.511 464.994 462.87 465.144C463.233 465.295 463.531 465.442 463.745 465.579C463.966 465.718 464.134 465.843 464.247 465.968C464.361 466.093 464.426 466.222 464.438 466.343C464.452 466.472 464.43 466.605 464.37 466.75L459.895 477.454L469.735 469.014C469.872 468.877 470.007 468.77 470.149 468.699C470.288 468.625 470.451 468.591 470.628 468.587C470.802 468.589 471.017 468.625 471.263 468.697C471.513 468.77 471.817 468.881 472.186 469.036C472.565 469.195 472.866 469.344 473.097 469.484C473.327 469.627 473.497 469.762 473.616 469.897C473.734 470.024 473.797 470.159 473.809 470.282C473.823 470.413 473.805 470.536 473.749 470.669C473.658 470.89 473.521 471.096 473.339 471.3C473.154 471.495 472.843 471.793 472.392 472.205L463.592 479.139L464.329 492.793C464.315 493.41 464.291 493.821 464.263 494.012C464.236 494.202 464.198 494.349 464.152 494.456V494.458ZM470.221 497.514C470.165 497.639 470.082 497.743 469.973 497.82C469.866 497.89 469.727 497.929 469.558 497.931C469.393 497.927 469.179 497.893 468.931 497.828C468.679 497.761 468.369 497.643 468.006 497.479C467.653 497.318 467.367 497.163 467.145 497.016C466.925 496.869 466.758 496.728 466.645 496.607C466.536 496.478 466.474 496.349 466.456 496.222C466.442 496.089 466.468 495.959 466.524 495.835L477.181 472.414C477.238 472.289 477.32 472.184 477.431 472.108C477.538 472.039 477.677 471.999 477.854 472.001C478.026 472.001 478.233 472.041 478.487 472.106C478.739 472.174 479.042 472.289 479.396 472.449C479.759 472.614 480.05 472.771 480.267 472.916C480.477 473.061 480.648 473.192 480.755 473.321C480.864 473.45 480.926 473.579 480.943 473.706C480.957 473.839 480.932 473.97 480.876 474.093L470.219 497.514H470.221ZM489.124 505.988C488.993 506.489 488.874 506.881 488.765 507.157C488.653 507.431 488.513 507.61 488.344 507.691C488.175 507.765 487.955 507.753 487.683 507.648C487.415 507.546 487.058 507.372 486.617 507.137C486.155 506.891 485.798 506.693 485.552 506.538C485.302 506.379 485.129 506.238 485.02 506.108C484.915 505.979 484.863 505.853 484.861 505.723C484.857 505.597 484.881 505.439 484.932 505.264L486.351 499.818L479.729 496.294L476.121 500.404C475.99 500.561 475.865 500.684 475.744 500.763C475.625 500.854 475.48 500.892 475.313 500.892C475.147 500.892 474.938 500.839 474.684 500.735C474.428 500.632 474.107 500.477 473.718 500.271C473.301 500.049 472.987 499.856 472.771 499.693C472.555 499.531 472.44 499.354 472.426 499.168C472.412 498.973 472.487 498.753 472.652 498.507C472.819 498.261 473.071 497.955 473.41 497.576L490.18 479.116C490.34 478.933 490.497 478.798 490.638 478.711C490.779 478.615 490.946 478.582 491.14 478.596C491.339 478.611 491.581 478.683 491.872 478.814C492.16 478.943 492.533 479.133 492.998 479.38C493.532 479.663 493.952 479.898 494.258 480.082C494.567 480.271 494.79 480.445 494.927 480.61C495.066 480.773 495.137 480.941 495.143 481.116C495.143 481.295 495.115 481.517 495.042 481.777L489.12 505.986L489.124 505.988ZM490.463 484.045L490.449 484.037L482.561 492.964L487.487 495.585L490.463 484.043V484.045Z" fill="#F8B811" style="fill:#F8B811;fill:color(display-p3 0.9725 0.7216 0.0667);fill-opacity:1;"/>
<path d="M649.016 283.706H600.091V151.342H648.951C662.438 151.342 674.05 153.992 683.787 159.292C693.568 164.548 701.108 172.132 706.408 182.042C711.708 191.909 714.358 203.715 714.358 217.459C714.358 231.247 711.708 243.096 706.408 253.006C701.151 262.916 693.633 270.521 683.852 275.821C674.071 281.077 662.459 283.706 649.016 283.706ZM632.083 256.432H647.788C655.199 256.432 661.468 255.182 666.595 252.683C671.766 250.141 675.665 246.026 678.294 240.339C680.965 234.608 682.301 226.982 682.301 217.459C682.301 207.937 680.965 200.354 678.294 194.709C675.622 189.022 671.68 184.929 666.466 182.43C661.296 179.887 654.919 178.616 647.336 178.616H632.083V256.432ZM753.847 283.706H719.463L764.123 151.342H806.715L851.375 283.706H816.991L785.904 184.692H784.87L753.847 283.706ZM749.258 231.613H821.127V255.915H749.258V231.613ZM865.626 283.706V151.342H920.82C930.73 151.342 939.025 152.743 945.703 155.543C952.425 158.344 957.466 162.265 960.827 167.306C964.231 172.347 965.932 178.185 965.932 184.821C965.932 189.862 964.877 194.365 962.766 198.329C960.654 202.25 957.746 205.503 954.04 208.088C950.335 210.673 946.048 212.483 941.179 213.517V214.81C946.522 215.068 951.455 216.511 955.979 219.14C960.547 221.768 964.209 225.43 966.967 230.127C969.724 234.78 971.103 240.296 971.103 246.672C971.103 253.782 969.293 260.137 965.674 265.738C962.055 271.297 956.82 275.692 949.969 278.923C943.118 282.112 934.802 283.706 925.021 283.706H865.626ZM897.618 257.918H917.395C924.332 257.918 929.438 256.604 932.712 253.976C936.03 251.347 937.689 247.685 937.689 242.988C937.689 239.585 936.892 236.655 935.298 234.199C933.703 231.7 931.441 229.782 928.511 228.447C925.581 227.068 922.07 226.378 917.977 226.378H897.618V257.918ZM897.618 205.761H915.327C918.817 205.761 921.919 205.18 924.633 204.016C927.348 202.853 929.459 201.172 930.967 198.975C932.518 196.778 933.294 194.128 933.294 191.025C933.294 186.587 931.721 183.097 928.576 180.555C925.431 178.013 921.187 176.742 915.844 176.742H897.618V205.761ZM986.485 283.706V151.342H1041.16C1051.07 151.342 1059.63 153.13 1066.82 156.707C1074.06 160.24 1079.64 165.324 1083.56 171.959C1087.48 178.552 1089.44 186.372 1089.44 195.42C1089.44 204.598 1087.44 212.397 1083.43 218.817C1079.42 225.193 1073.74 230.062 1066.37 233.423C1059 236.741 1050.28 238.4 1040.19 238.4H1005.62V213.194H1034.25C1039.07 213.194 1043.1 212.569 1046.33 211.319C1049.61 210.027 1052.09 208.088 1053.77 205.503C1055.45 202.874 1056.29 199.514 1056.29 195.42C1056.29 191.327 1055.45 187.945 1053.77 185.273C1052.09 182.559 1049.61 180.534 1046.33 179.198C1043.06 177.819 1039.03 177.13 1034.25 177.13H1018.48V283.706H986.485ZM1061 223.211L1093.97 283.706H1059.07L1026.75 223.211H1061ZM1135.62 283.706H1101.24L1145.9 151.342H1188.49L1233.15 283.706H1198.76L1167.68 184.692H1166.64L1135.62 283.706ZM1131.03 231.613H1202.9V255.915H1131.03V231.613ZM1247.4 283.706V151.342H1279.39V207.312H1281.14L1324.89 151.342H1362.57L1315.65 210.415L1363.41 283.706H1325.15L1292.19 231.678L1279.39 247.836V283.706H1247.4ZM1403.82 283.706H1369.44L1414.1 151.342H1456.69L1501.35 283.706H1466.97L1435.88 184.692H1434.84L1403.82 283.706ZM1399.23 231.613H1471.1V255.915H1399.23V231.613Z" fill="#F8B811" style="fill:#F8B811;fill:color(display-p3 0.9725 0.7216 0.0667);fill-opacity:1;"/>
<path d="M610.436 396.706H594.664V350.16H610.755C615.376 350.16 619.345 351.092 622.664 352.956C625.997 354.804 628.558 357.463 630.345 360.933C632.133 364.403 633.027 368.554 633.027 373.388C633.027 378.236 632.126 382.403 630.323 385.888C628.535 389.372 625.952 392.047 622.573 393.91C619.209 395.774 615.164 396.706 610.436 396.706ZM603.095 389.41H610.027C613.27 389.41 615.974 388.819 618.141 387.638C620.308 386.441 621.936 384.66 623.027 382.297C624.118 379.918 624.664 376.948 624.664 373.388C624.664 369.827 624.118 366.872 623.027 364.524C621.936 362.16 620.323 360.395 618.186 359.229C616.065 358.047 613.429 357.456 610.277 357.456H603.095V389.41ZM644.516 396.706H635.516L651.902 350.16H662.311L678.72 396.706H669.72L657.289 359.706H656.925L644.516 396.706ZM644.811 378.456H669.357V385.229H644.811V378.456ZM684.851 396.706V350.16H702.306C705.881 350.16 708.881 350.782 711.306 352.024C713.745 353.266 715.586 355.009 716.828 357.251C718.086 359.479 718.715 362.077 718.715 365.047C718.715 368.032 718.078 370.622 716.806 372.819C715.548 375.001 713.692 376.691 711.238 377.888C708.783 379.069 705.768 379.66 702.192 379.66H689.76V372.66H701.056C703.147 372.66 704.859 372.372 706.192 371.797C707.525 371.206 708.51 370.35 709.147 369.229C709.798 368.092 710.124 366.698 710.124 365.047C710.124 363.395 709.798 361.986 709.147 360.819C708.495 359.638 707.503 358.744 706.169 358.138C704.836 357.516 703.116 357.206 701.01 357.206H693.283V396.706H684.851ZM708.897 375.615L720.419 396.706H711.01L699.692 375.615H708.897ZM726.476 350.16H736.794L750.613 383.888H751.158L764.976 350.16H775.294V396.706H767.203V364.729H766.772L753.908 396.569H747.863L734.999 364.66H734.567V396.706H726.476V350.16ZM790.453 396.706H781.453L797.84 350.16H808.249L824.658 396.706H815.658L803.226 359.706H802.863L790.453 396.706ZM790.749 378.456H815.294V385.229H790.749V378.456ZM846.664 396.706V350.16H864.482C867.845 350.16 870.641 350.691 872.868 351.751C875.111 352.797 876.785 354.229 877.891 356.047C879.012 357.865 879.573 359.926 879.573 362.229C879.573 364.122 879.209 365.744 878.482 367.092C877.755 368.426 876.777 369.509 875.55 370.342C874.323 371.176 872.952 371.774 871.436 372.138V372.592C873.088 372.683 874.671 373.191 876.186 374.115C877.717 375.024 878.967 376.312 879.936 377.979C880.906 379.645 881.391 381.66 881.391 384.024C881.391 386.433 880.808 388.6 879.641 390.524C878.474 392.433 876.717 393.941 874.368 395.047C872.02 396.153 869.065 396.706 865.505 396.706H846.664ZM855.095 389.66H864.164C867.224 389.66 869.429 389.077 870.777 387.91C872.141 386.729 872.823 385.213 872.823 383.365C872.823 381.986 872.482 380.744 871.8 379.638C871.118 378.516 870.149 377.638 868.891 377.001C867.633 376.35 866.133 376.024 864.391 376.024H855.095V389.66ZM855.095 369.956H863.436C864.891 369.956 866.202 369.691 867.368 369.16C868.535 368.615 869.452 367.85 870.118 366.865C870.8 365.865 871.141 364.683 871.141 363.319C871.141 361.516 870.505 360.032 869.232 358.865C867.974 357.698 866.103 357.115 863.618 357.115H855.095V369.956ZM888.726 396.706V350.16H906.181C909.756 350.16 912.756 350.782 915.181 352.024C917.62 353.266 919.461 355.009 920.703 357.251C921.961 359.479 922.59 362.077 922.59 365.047C922.59 368.032 921.953 370.622 920.681 372.819C919.423 375.001 917.567 376.691 915.113 377.888C912.658 379.069 909.643 379.66 906.067 379.66H893.635V372.66H904.931C907.022 372.66 908.734 372.372 910.067 371.797C911.4 371.206 912.385 370.35 913.022 369.229C913.673 368.092 913.999 366.698 913.999 365.047C913.999 363.395 913.673 361.986 913.022 360.819C912.37 359.638 911.378 358.744 910.044 358.138C908.711 357.516 906.991 357.206 904.885 357.206H897.158V396.706H888.726ZM912.772 375.615L924.294 396.706H914.885L903.567 375.615H912.772ZM936.328 396.706H927.328L943.715 350.16H954.124L970.533 396.706H961.533L949.101 359.706H948.738L936.328 396.706ZM936.624 378.456H961.169V385.229H936.624V378.456ZM968.993 357.229V350.16H1006.13V357.229H991.743V396.706H983.38V357.229H968.993ZM1013.64 396.706H1004.64L1021.03 350.16H1031.44L1047.85 396.706H1038.85L1026.41 359.706H1026.05L1013.64 396.706ZM1013.94 378.456H1038.48V385.229H1013.94V378.456ZM1069.85 396.706V350.16H1087.67C1091.03 350.16 1093.83 350.691 1096.06 351.751C1098.3 352.797 1099.97 354.229 1101.08 356.047C1102.2 357.865 1102.76 359.926 1102.76 362.229C1102.76 364.122 1102.4 365.744 1101.67 367.092C1100.94 368.426 1099.96 369.509 1098.74 370.342C1097.51 371.176 1096.14 371.774 1094.62 372.138V372.592C1096.28 372.683 1097.86 373.191 1099.37 374.115C1100.9 375.024 1102.15 376.312 1103.12 377.979C1104.09 379.645 1104.58 381.66 1104.58 384.024C1104.58 386.433 1104 388.6 1102.83 390.524C1101.66 392.433 1099.9 393.941 1097.56 395.047C1095.21 396.153 1092.25 396.706 1088.69 396.706H1069.85ZM1078.28 389.66H1087.35C1090.41 389.66 1092.62 389.077 1093.96 387.91C1095.33 386.729 1096.01 385.213 1096.01 383.365C1096.01 381.986 1095.67 380.744 1094.99 379.638C1094.31 378.516 1093.34 377.638 1092.08 377.001C1090.82 376.35 1089.32 376.024 1087.58 376.024H1078.28V389.66ZM1078.28 369.956H1086.62C1088.08 369.956 1089.39 369.691 1090.56 369.16C1091.72 368.615 1092.64 367.85 1093.31 366.865C1093.99 365.865 1094.33 364.683 1094.33 363.319C1094.33 361.516 1093.69 360.032 1092.42 358.865C1091.16 357.698 1089.29 357.115 1086.81 357.115H1078.28V369.956ZM1141.25 350.16H1149.69V380.569C1149.69 383.903 1148.9 386.835 1147.32 389.365C1145.76 391.895 1143.57 393.872 1140.73 395.297C1137.9 396.706 1134.59 397.41 1130.8 397.41C1127 397.41 1123.68 396.706 1120.85 395.297C1118.01 393.872 1115.82 391.895 1114.25 389.365C1112.69 386.835 1111.91 383.903 1111.91 380.569V350.16H1120.35V379.865C1120.35 381.804 1120.77 383.532 1121.62 385.047C1122.48 386.562 1123.69 387.751 1125.25 388.615C1126.82 389.463 1128.66 389.888 1130.8 389.888C1132.94 389.888 1134.78 389.463 1136.35 388.615C1137.92 387.751 1139.13 386.562 1139.98 385.047C1140.83 383.532 1141.25 381.804 1141.25 379.865V350.16ZM1164.83 396.706H1155.83L1172.21 350.16H1182.62L1199.03 396.706H1190.03L1177.6 359.706H1177.24L1164.83 396.706ZM1165.12 378.456H1189.67V385.229H1165.12V378.456ZM1243.41 350.16V396.706H1235.91L1213.98 365.001H1213.6V396.706H1205.16V350.16H1212.71L1234.62 381.888H1235.03V350.16H1243.41ZM1258.58 396.706H1249.58L1265.96 350.16H1276.37L1292.78 396.706H1283.78L1271.35 359.706H1270.99L1258.58 396.706ZM1258.87 378.456H1283.42V385.229H1258.87V378.456ZM1354.63 365.865H1346.13C1345.89 364.471 1345.44 363.236 1344.79 362.16C1344.14 361.069 1343.33 360.145 1342.36 359.388C1341.39 358.63 1340.28 358.062 1339.04 357.683C1337.81 357.289 1336.49 357.092 1335.06 357.092C1332.53 357.092 1330.29 357.729 1328.33 359.001C1326.38 360.259 1324.85 362.107 1323.74 364.547C1322.64 366.971 1322.08 369.933 1322.08 373.433C1322.08 376.994 1322.64 379.994 1323.74 382.433C1324.86 384.857 1326.39 386.691 1328.33 387.933C1330.29 389.16 1332.52 389.774 1335.04 389.774C1336.43 389.774 1337.74 389.592 1338.95 389.229C1340.18 388.85 1341.27 388.297 1342.24 387.569C1343.23 386.842 1344.05 385.948 1344.72 384.888C1345.4 383.827 1345.87 382.615 1346.13 381.251L1354.63 381.297C1354.31 383.509 1353.62 385.585 1352.56 387.524C1351.52 389.463 1350.14 391.176 1348.45 392.66C1346.75 394.13 1344.77 395.282 1342.49 396.115C1340.22 396.933 1337.7 397.342 1334.93 397.342C1330.83 397.342 1327.18 396.395 1323.97 394.501C1320.76 392.607 1318.23 389.872 1316.38 386.297C1314.53 382.721 1313.61 378.433 1313.61 373.433C1313.61 368.418 1314.54 364.13 1316.4 360.569C1318.27 356.994 1320.8 354.259 1324.02 352.365C1327.23 350.471 1330.86 349.524 1334.93 349.524C1337.52 349.524 1339.93 349.888 1342.15 350.615C1344.38 351.342 1346.36 352.41 1348.11 353.819C1349.85 355.213 1351.28 356.926 1352.4 358.956C1353.54 360.971 1354.28 363.274 1354.63 365.865ZM1362.35 396.706V350.16H1392.62V357.229H1370.78V369.865H1391.06V376.933H1370.78V389.638H1392.81V396.706H1362.35ZM1439.48 350.16V396.706H1431.98L1410.04 365.001H1409.66V396.706H1401.23V350.16H1408.77L1430.68 381.888H1431.09V350.16H1439.48ZM1464.44 396.706H1448.66V350.16H1464.75C1469.38 350.16 1473.35 351.092 1476.66 352.956C1480 354.804 1482.56 357.463 1484.35 360.933C1486.13 364.403 1487.03 368.554 1487.03 373.388C1487.03 378.236 1486.13 382.403 1484.32 385.888C1482.53 389.372 1479.95 392.047 1476.57 393.91C1473.21 395.774 1469.16 396.706 1464.44 396.706ZM1457.1 389.41H1464.03C1467.27 389.41 1469.97 388.819 1472.14 387.638C1474.31 386.441 1475.94 384.66 1477.03 382.297C1478.12 379.918 1478.66 376.948 1478.66 373.388C1478.66 369.827 1478.12 366.872 1477.03 364.524C1475.94 362.16 1474.32 360.395 1472.19 359.229C1470.07 358.047 1467.43 357.456 1464.28 357.456H1457.1V389.41ZM1503.47 350.16V396.706H1495.04V350.16H1503.47ZM1512.6 396.706V350.16H1521.03V371.547H1521.6L1539.76 350.16H1550.06L1532.06 371.047L1550.21 396.706H1540.08L1526.19 376.751L1521.03 382.842V396.706H1512.6ZM1564.35 350.16V396.706H1555.91V350.16H1564.35ZM1579.45 396.706H1570.45L1586.84 350.16H1597.25L1613.66 396.706H1604.66L1592.23 359.706H1591.86L1579.45 396.706ZM1579.75 378.456H1604.29V385.229H1579.75V378.456Z" fill="#F8B811" style="fill:#F8B811;fill:color(display-p3 0.9725 0.7216 0.0667);fill-opacity:1;"/>
<line x1="591.073" y1="325.706" x2="1615.07" y2="325.706" stroke="#122966" style="stroke:#122966;stroke:color(display-p3 0.0706 0.1608 0.4000);stroke-opacity:1;" stroke-width="2" stroke-linecap="round"/>
</svg>
